<?xml version="1.0" standalone="no"?>
<svg xmlns:xlink="http://www.w3.org/1999/xlink" id="wave" style="transform:rotate(180deg); transition: 0.3s" viewBox="0 0 1440 200" version="1.1" xmlns="http://www.w3.org/2000/svg"><defs><linearGradient id="sw-gradient-0" x1="0" x2="0" y1="1" y2="0"><stop stop-color="rgba(33, 37, 41, 1)" offset="0%"/><stop stop-color="rgba(33, 37, 41, 1)" offset="100%"/></linearGradient></defs><path style="transform:translate(0, 0px); opacity:1" fill="url(#sw-gradient-0)" d="M0,100L30,83.3C60,67,120,33,180,36.7C240,40,300,80,360,90C420,100,480,80,540,60C600,40,660,20,720,10C780,0,840,0,900,26.7C960,53,1020,107,1080,110C1140,113,1200,67,1260,63.3C1320,60,1380,100,1440,106.7C1500,113,1560,87,1620,83.3C1680,80,1740,100,1800,90C1860,80,1920,40,1980,50C2040,60,2100,120,2160,126.7C2220,133,2280,87,2340,56.7C2400,27,2460,13,2520,16.7C2580,20,2640,40,2700,63.3C2760,87,2820,113,2880,103.3C2940,93,3000,47,3060,53.3C3120,60,3180,120,3240,146.7C3300,173,3360,167,3420,156.7C3480,147,3540,133,3600,106.7C3660,80,3720,40,3780,30C3840,20,3900,40,3960,46.7C4020,53,4080,47,4140,56.7C4200,67,4260,93,4290,106.7L4320,120L4320,200L4290,200C4260,200,4200,200,4140,200C4080,200,4020,200,3960,200C3900,200,3840,200,3780,200C3720,200,3660,200,3600,200C3540,200,3480,200,3420,200C3360,200,3300,200,3240,200C3180,200,3120,200,3060,200C3000,200,2940,200,2880,200C2820,200,2760,200,2700,200C2640,200,2580,200,2520,200C2460,200,2400,200,2340,200C2280,200,2220,200,2160,200C2100,200,2040,200,1980,200C1920,200,1860,200,1800,200C1740,200,1680,200,1620,200C1560,200,1500,200,1440,200C1380,200,1320,200,1260,200C1200,200,1140,200,1080,200C1020,200,960,200,900,200C840,200,780,200,720,200C660,200,600,200,540,200C480,200,420,200,360,200C300,200,240,200,180,200C120,200,60,200,30,200L0,200Z"/></svg>