<svg id="visual" viewBox="0 0 960 540" width="960" height="540" xmlns="http://www.w3.org/2000/svg" xmlns:xlink="http://www.w3.org/1999/xlink" version="1.1"><path d="M0 360L22.8 361.2C45.7 362.3 91.3 364.7 137 372.5C182.7 380.3 228.3 393.7 274 399.2C319.7 404.7 365.3 402.3 411.2 396C457 389.7 503 379.3 548.8 378.5C594.7 377.7 640.3 386.3 686 394.3C731.7 402.3 777.3 409.7 823 414.2C868.7 418.7 914.3 420.3 937.2 421.2L960 422L960 541L937.2 541C914.3 541 868.7 541 823 541C777.3 541 731.7 541 686 541C640.3 541 594.7 541 548.8 541C503 541 457 541 411.2 541C365.3 541 319.7 541 274 541C228.3 541 182.7 541 137 541C91.3 541 45.7 541 22.8 541L0 541Z" fill="#7f5ba4"></path><path d="M0 417L22.8 416C45.7 415 91.3 413 137 414.3C182.7 415.7 228.3 420.3 274 418C319.7 415.7 365.3 406.3 411.2 406.3C457 406.3 503 415.7 548.8 415.2C594.7 414.7 640.3 404.3 686 407C731.7 409.7 777.3 425.3 823 431.7C868.7 438 914.3 435 937.2 433.5L960 432L960 541L937.2 541C914.3 541 868.7 541 823 541C777.3 541 731.7 541 686 541C640.3 541 594.7 541 548.8 541C503 541 457 541 411.2 541C365.3 541 319.7 541 274 541C228.3 541 182.7 541 137 541C91.3 541 45.7 541 22.8 541L0 541Z" fill="#5a508c"></path><path d="M0 428L22.8 427C45.7 426 91.3 424 137 422.7C182.7 421.3 228.3 420.7 274 427.2C319.7 433.7 365.3 447.3 411.2 453.8C457 460.3 503 459.7 548.8 454.2C594.7 448.7 640.3 438.3 686 436C731.7 433.7 777.3 439.3 823 438.8C868.7 438.3 914.3 431.7 937.2 428.3L960 425L960 541L937.2 541C914.3 541 868.7 541 823 541C777.3 541 731.7 541 686 541C640.3 541 594.7 541 548.8 541C503 541 457 541 411.2 541C365.3 541 319.7 541 274 541C228.3 541 182.7 541 137 541C91.3 541 45.7 541 22.8 541L0 541Z" fill="#3b4370"></path><path d="M0 479L22.8 478.8C45.7 478.7 91.3 478.3 137 474.8C182.7 471.3 228.3 464.7 274 460.7C319.7 456.7 365.3 455.3 411.2 454.3C457 453.3 503 452.7 548.8 455.3C594.7 458 640.3 464 686 468C731.7 472 777.3 474 823 472.5C868.7 471 914.3 466 937.2 463.5L960 461L960 541L937.2 541C914.3 541 868.7 541 823 541C777.3 541 731.7 541 686 541C640.3 541 594.7 541 548.8 541C503 541 457 541 411.2 541C365.3 541 319.7 541 274 541C228.3 541 182.7 541 137 541C91.3 541 45.7 541 22.8 541L0 541Z" fill="#243553"></path><path d="M0 492L22.8 491.3C45.7 490.7 91.3 489.3 137 488.2C182.7 487 228.3 486 274 483.8C319.7 481.7 365.3 478.3 411.2 481C457 483.7 503 492.3 548.8 497C594.7 501.7 640.3 502.3 686 497C731.7 491.7 777.3 480.3 823 479.7C868.7 479 914.3 489 937.2 494L960 499L960 541L937.2 541C914.3 541 868.7 541 823 541C777.3 541 731.7 541 686 541C640.3 541 594.7 541 548.8 541C503 541 457 541 411.2 541C365.3 541 319.7 541 274 541C228.3 541 182.7 541 137 541C91.3 541 45.7 541 22.8 541L0 541Z" fill="#162536"></path><path d="M0 509L22.8 508.7C45.7 508.3 91.3 507.7 137 507.8C182.7 508 228.3 509 274 510.3C319.7 511.7 365.3 513.3 411.2 515.3C457 517.3 503 519.7 548.8 519.2C594.7 518.7 640.3 515.3 686 515.2C731.7 515 777.3 518 823 517.5C868.7 517 914.3 513 937.2 511L960 509L960 541L937.2 541C914.3 541 868.7 541 823 541C777.3 541 731.7 541 686 541C640.3 541 594.7 541 548.8 541C503 541 457 541 411.2 541C365.3 541 319.7 541 274 541C228.3 541 182.7 541 137 541C91.3 541 45.7 541 22.8 541L0 541Z" fill="#0e151b"></path></svg>