<?xml version="1.0" standalone="no"?>
<svg xmlns:xlink="http://www.w3.org/1999/xlink" id="wave" style="transform:rotate(0deg); transition: 0.3s" viewBox="0 0 1440 150" version="1.1" xmlns="http://www.w3.org/2000/svg"><defs><linearGradient id="sw-gradient-0" x1="0" x2="0" y1="1" y2="0"><stop stop-color="rgba(103, 22, 120, 1)" offset="0%"/><stop stop-color="rgba(103, 22, 120, 1)" offset="100%"/></linearGradient></defs><path style="transform:translate(0, 0px); opacity:1" fill="url(#sw-gradient-0)" d="M0,60L30,67.5C60,75,120,90,180,100C240,110,300,115,360,100C420,85,480,50,540,50C600,50,660,85,720,82.5C780,80,840,40,900,42.5C960,45,1020,90,1080,107.5C1140,125,1200,115,1260,97.5C1320,80,1380,55,1440,55C1500,55,1560,80,1620,82.5C1680,85,1740,65,1800,57.5C1860,50,1920,55,1980,55C2040,55,2100,50,2160,47.5C2220,45,2280,45,2340,45C2400,45,2460,45,2520,57.5C2580,70,2640,95,2700,100C2760,105,2820,90,2880,77.5C2940,65,3000,55,3060,52.5C3120,50,3180,55,3240,65C3300,75,3360,90,3420,87.5C3480,85,3540,65,3600,70C3660,75,3720,105,3780,112.5C3840,120,3900,105,3960,87.5C4020,70,4080,50,4140,45C4200,40,4260,50,4290,55L4320,60L4320,150L4290,150C4260,150,4200,150,4140,150C4080,150,4020,150,3960,150C3900,150,3840,150,3780,150C3720,150,3660,150,3600,150C3540,150,3480,150,3420,150C3360,150,3300,150,3240,150C3180,150,3120,150,3060,150C3000,150,2940,150,2880,150C2820,150,2760,150,2700,150C2640,150,2580,150,2520,150C2460,150,2400,150,2340,150C2280,150,2220,150,2160,150C2100,150,2040,150,1980,150C1920,150,1860,150,1800,150C1740,150,1680,150,1620,150C1560,150,1500,150,1440,150C1380,150,1320,150,1260,150C1200,150,1140,150,1080,150C1020,150,960,150,900,150C840,150,780,150,720,150C660,150,600,150,540,150C480,150,420,150,360,150C300,150,240,150,180,150C120,150,60,150,30,150L0,150Z"/></svg>