<?xml version="1.0" standalone="no"?>
<svg xmlns:xlink="http://www.w3.org/1999/xlink" id="wave" style="transform:rotate(0deg); transition: 0.3s" viewBox="0 0 1440 210" version="1.1" xmlns="http://www.w3.org/2000/svg"><defs><linearGradient id="sw-gradient-0" x1="0" x2="0" y1="1" y2="0"><stop stop-color="rgba(103, 22, 120, 1)" offset="0%"/><stop stop-color="rgba(103, 22, 120, 1)" offset="100%"/></linearGradient></defs><path style="transform:translate(0, 0px); opacity:1" fill="url(#sw-gradient-0)" d="M0,105L40,91C80,77,160,49,240,59.5C320,70,400,119,480,126C560,133,640,98,720,98C800,98,880,133,960,150.5C1040,168,1120,168,1200,150.5C1280,133,1360,98,1440,91C1520,84,1600,105,1680,98C1760,91,1840,56,1920,52.5C2000,49,2080,77,2160,80.5C2240,84,2320,63,2400,45.5C2480,28,2560,14,2640,24.5C2720,35,2800,70,2880,77C2960,84,3040,63,3120,77C3200,91,3280,140,3360,157.5C3440,175,3520,161,3600,161C3680,161,3760,175,3840,182C3920,189,4000,189,4080,171.5C4160,154,4240,119,4320,119C4400,119,4480,154,4560,171.5C4640,189,4720,189,4800,168C4880,147,4960,105,5040,101.5C5120,98,5200,133,5280,129.5C5360,126,5440,84,5520,66.5C5600,49,5680,56,5720,59.5L5760,63L5760,210L5720,210C5680,210,5600,210,5520,210C5440,210,5360,210,5280,210C5200,210,5120,210,5040,210C4960,210,4880,210,4800,210C4720,210,4640,210,4560,210C4480,210,4400,210,4320,210C4240,210,4160,210,4080,210C4000,210,3920,210,3840,210C3760,210,3680,210,3600,210C3520,210,3440,210,3360,210C3280,210,3200,210,3120,210C3040,210,2960,210,2880,210C2800,210,2720,210,2640,210C2560,210,2480,210,2400,210C2320,210,2240,210,2160,210C2080,210,2000,210,1920,210C1840,210,1760,210,1680,210C1600,210,1520,210,1440,210C1360,210,1280,210,1200,210C1120,210,1040,210,960,210C880,210,800,210,720,210C640,210,560,210,480,210C400,210,320,210,240,210C160,210,80,210,40,210L0,210Z"/></svg>