<?xml version="1.0" standalone="no"?>
<svg xmlns:xlink="http://www.w3.org/1999/xlink" id="wave" style="transform:rotate(180deg); transition: 0.3s" viewBox="0 0 1440 230" version="1.1" xmlns="http://www.w3.org/2000/svg"><defs><linearGradient id="sw-gradient-0" x1="0" x2="0" y1="1" y2="0"><stop stop-color="rgba(103, 22, 120, 1)" offset="0%"/><stop stop-color="rgba(103, 22, 120, 1)" offset="100%"/></linearGradient></defs><path style="transform:translate(0, 0px); opacity:1" fill="url(#sw-gradient-0)" d="M0,115L34.3,130.3C68.6,146,137,176,206,161C274.3,146,343,84,411,57.5C480,31,549,38,617,53.7C685.7,69,754,92,823,99.7C891.4,107,960,100,1029,80.5C1097.1,61,1166,31,1234,49.8C1302.9,69,1371,138,1440,138C1508.6,138,1577,69,1646,61.3C1714.3,54,1783,107,1851,122.7C1920,138,1989,115,2057,118.8C2125.7,123,2194,153,2263,145.7C2331.4,138,2400,92,2469,80.5C2537.1,69,2606,92,2674,95.8C2742.9,100,2811,84,2880,65.2C2948.6,46,3017,23,3086,15.3C3154.3,8,3223,15,3291,19.2C3360,23,3429,23,3497,46C3565.7,69,3634,115,3703,141.8C3771.4,169,3840,176,3909,172.5C3977.1,169,4046,153,4114,138C4182.9,123,4251,107,4320,88.2C4388.6,69,4457,46,4526,42.2C4594.3,38,4663,54,4731,72.8C4800,92,4869,115,4903,126.5L4937.1,138L4937.1,230L4902.9,230C4868.6,230,4800,230,4731,230C4662.9,230,4594,230,4526,230C4457.1,230,4389,230,4320,230C4251.4,230,4183,230,4114,230C4045.7,230,3977,230,3909,230C3840,230,3771,230,3703,230C3634.3,230,3566,230,3497,230C3428.6,230,3360,230,3291,230C3222.9,230,3154,230,3086,230C3017.1,230,2949,230,2880,230C2811.4,230,2743,230,2674,230C2605.7,230,2537,230,2469,230C2400,230,2331,230,2263,230C2194.3,230,2126,230,2057,230C1988.6,230,1920,230,1851,230C1782.9,230,1714,230,1646,230C1577.1,230,1509,230,1440,230C1371.4,230,1303,230,1234,230C1165.7,230,1097,230,1029,230C960,230,891,230,823,230C754.3,230,686,230,617,230C548.6,230,480,230,411,230C342.9,230,274,230,206,230C137.1,230,69,230,34,230L0,230Z"/></svg>