<?xml version="1.0" standalone="no"?>
<svg xmlns:xlink="http://www.w3.org/1999/xlink" id="wave" style="transform:rotate(180deg); transition: 0.3s" viewBox="0 0 1440 160" version="1.1" xmlns="http://www.w3.org/2000/svg"><defs><linearGradient id="sw-gradient-0" x1="0" x2="0" y1="1" y2="0"><stop stop-color="rgba(103, 22, 120, 1)" offset="0%"/><stop stop-color="rgba(103, 22, 120, 1)" offset="100%"/></linearGradient></defs><path style="transform:translate(0, 0px); opacity:1" fill="url(#sw-gradient-0)" d="M0,96L34.3,101.3C68.6,107,137,117,206,106.7C274.3,96,343,64,411,66.7C480,69,549,107,617,101.3C685.7,96,754,48,823,48C891.4,48,960,96,1029,109.3C1097.1,123,1166,101,1234,96C1302.9,91,1371,101,1440,109.3C1508.6,117,1577,123,1646,114.7C1714.3,107,1783,85,1851,77.3C1920,69,1989,75,2057,74.7C2125.7,75,2194,69,2263,56C2331.4,43,2400,21,2469,34.7C2537.1,48,2606,96,2674,109.3C2742.9,123,2811,101,2880,96C2948.6,91,3017,101,3086,109.3C3154.3,117,3223,123,3291,122.7C3360,123,3429,117,3497,120C3565.7,123,3634,133,3703,120C3771.4,107,3840,69,3909,69.3C3977.1,69,4046,107,4114,101.3C4182.9,96,4251,48,4320,29.3C4388.6,11,4457,21,4526,29.3C4594.3,37,4663,43,4731,53.3C4800,64,4869,80,4903,88L4937.1,96L4937.1,160L4902.9,160C4868.6,160,4800,160,4731,160C4662.9,160,4594,160,4526,160C4457.1,160,4389,160,4320,160C4251.4,160,4183,160,4114,160C4045.7,160,3977,160,3909,160C3840,160,3771,160,3703,160C3634.3,160,3566,160,3497,160C3428.6,160,3360,160,3291,160C3222.9,160,3154,160,3086,160C3017.1,160,2949,160,2880,160C2811.4,160,2743,160,2674,160C2605.7,160,2537,160,2469,160C2400,160,2331,160,2263,160C2194.3,160,2126,160,2057,160C1988.6,160,1920,160,1851,160C1782.9,160,1714,160,1646,160C1577.1,160,1509,160,1440,160C1371.4,160,1303,160,1234,160C1165.7,160,1097,160,1029,160C960,160,891,160,823,160C754.3,160,686,160,617,160C548.6,160,480,160,411,160C342.9,160,274,160,206,160C137.1,160,69,160,34,160L0,160Z"/></svg>