<svg id="visual" viewBox="0 0 960 540" width="960" height="540" xmlns="http://www.w3.org/2000/svg" xmlns:xlink="http://www.w3.org/1999/xlink" version="1.1"><path d="M0 394L16 395.7C32 397.3 64 400.7 96 398.3C128 396 160 388 192 388C224 388 256 396 288 398.7C320 401.3 352 398.7 384 398.3C416 398 448 400 480 398.3C512 396.7 544 391.3 576 394.3C608 397.3 640 408.7 672 408.5C704 408.3 736 396.7 768 395.5C800 394.3 832 403.7 864 405.3C896 407 928 401 944 398L960 395L960 541L944 541C928 541 896 541 864 541C832 541 800 541 768 541C736 541 704 541 672 541C640 541 608 541 576 541C544 541 512 541 480 541C448 541 416 541 384 541C352 541 320 541 288 541C256 541 224 541 192 541C160 541 128 541 96 541C64 541 32 541 16 541L0 541Z" fill="#2f2f56"></path><path d="M0 433L16 429.2C32 425.3 64 417.7 96 419.3C128 421 160 432 192 434.5C224 437 256 431 288 431.2C320 431.3 352 437.7 384 439.7C416 441.7 448 439.3 480 432.5C512 425.7 544 414.3 576 415.5C608 416.7 640 430.3 672 435.8C704 441.3 736 438.7 768 432.8C800 427 832 418 864 412.2C896 406.3 928 403.7 944 402.3L960 401L960 541L944 541C928 541 896 541 864 541C832 541 800 541 768 541C736 541 704 541 672 541C640 541 608 541 576 541C544 541 512 541 480 541C448 541 416 541 384 541C352 541 320 541 288 541C256 541 224 541 192 541C160 541 128 541 96 541C64 541 32 541 16 541L0 541Z" fill="#202a48"></path><path d="M0 451L16 451.7C32 452.3 64 453.7 96 451C128 448.3 160 441.7 192 441.5C224 441.3 256 447.7 288 450.3C320 453 352 452 384 449.5C416 447 448 443 480 440.3C512 437.7 544 436.3 576 437.2C608 438 640 441 672 443C704 445 736 446 768 444.7C800 443.3 832 439.7 864 437.2C896 434.7 928 433.3 944 432.7L960 432L960 541L944 541C928 541 896 541 864 541C832 541 800 541 768 541C736 541 704 541 672 541C640 541 608 541 576 541C544 541 512 541 480 541C448 541 416 541 384 541C352 541 320 541 288 541C256 541 224 541 192 541C160 541 128 541 96 541C64 541 32 541 16 541L0 541Z" fill="#162439"></path><path d="M0 467L16 470.2C32 473.3 64 479.7 96 484.2C128 488.7 160 491.3 192 487.3C224 483.3 256 472.7 288 466.8C320 461 352 460 384 464.7C416 469.3 448 479.7 480 483.7C512 487.7 544 485.3 576 481.7C608 478 640 473 672 470C704 467 736 466 768 465.5C800 465 832 465 864 469.3C896 473.7 928 482.3 944 486.7L960 491L960 541L944 541C928 541 896 541 864 541C832 541 800 541 768 541C736 541 704 541 672 541C640 541 608 541 576 541C544 541 512 541 480 541C448 541 416 541 384 541C352 541 320 541 288 541C256 541 224 541 192 541C160 541 128 541 96 541C64 541 32 541 16 541L0 541Z" fill="#111d2a"></path><path d="M0 495L16 498.5C32 502 64 509 96 509.2C128 509.3 160 502.7 192 499.5C224 496.3 256 496.7 288 499.7C320 502.7 352 508.3 384 510.3C416 512.3 448 510.7 480 508.3C512 506 544 503 576 501C608 499 640 498 672 497.8C704 497.7 736 498.3 768 500.7C800 503 832 507 864 507.8C896 508.7 928 506.3 944 505.2L960 504L960 541L944 541C928 541 896 541 864 541C832 541 800 541 768 541C736 541 704 541 672 541C640 541 608 541 576 541C544 541 512 541 480 541C448 541 416 541 384 541C352 541 320 541 288 541C256 541 224 541 192 541C160 541 128 541 96 541C64 541 32 541 16 541L0 541Z" fill="#0e151b"></path></svg>