<svg id="visual" viewBox="0 0 960 540" width="960" height="540" xmlns="http://www.w3.org/2000/svg" xmlns:xlink="http://www.w3.org/1999/xlink" version="1.1"><path d="M0 384L16 391.3C32 398.7 64 413.3 96 418.3C128 423.3 160 418.7 192 415.7C224 412.7 256 411.3 288 410C320 408.7 352 407.3 384 408.3C416 409.3 448 412.7 480 408.3C512 404 544 392 576 386.5C608 381 640 382 672 386.7C704 391.3 736 399.7 768 399.2C800 398.7 832 389.3 864 389.8C896 390.3 928 400.7 944 405.8L960 411L960 541L944 541C928 541 896 541 864 541C832 541 800 541 768 541C736 541 704 541 672 541C640 541 608 541 576 541C544 541 512 541 480 541C448 541 416 541 384 541C352 541 320 541 288 541C256 541 224 541 192 541C160 541 128 541 96 541C64 541 32 541 16 541L0 541Z" fill="#0e151b"></path><path d="M0 438L16 433.3C32 428.7 64 419.3 96 421.3C128 423.3 160 436.7 192 439.7C224 442.7 256 435.3 288 430C320 424.7 352 421.3 384 419.5C416 417.7 448 417.3 480 421C512 424.7 544 432.3 576 436.5C608 440.7 640 441.3 672 443.2C704 445 736 448 768 448.7C800 449.3 832 447.7 864 447.5C896 447.3 928 448.7 944 449.3L960 450L960 541L944 541C928 541 896 541 864 541C832 541 800 541 768 541C736 541 704 541 672 541C640 541 608 541 576 541C544 541 512 541 480 541C448 541 416 541 384 541C352 541 320 541 288 541C256 541 224 541 192 541C160 541 128 541 96 541C64 541 32 541 16 541L0 541Z" fill="#111d2a"></path><path d="M0 440L16 438.5C32 437 64 434 96 435C128 436 160 441 192 445.5C224 450 256 454 288 452.3C320 450.7 352 443.3 384 445.5C416 447.7 448 459.3 480 465.8C512 472.3 544 473.7 576 474.3C608 475 640 475 672 472C704 469 736 463 768 460.2C800 457.3 832 457.7 864 458.8C896 460 928 462 944 463L960 464L960 541L944 541C928 541 896 541 864 541C832 541 800 541 768 541C736 541 704 541 672 541C640 541 608 541 576 541C544 541 512 541 480 541C448 541 416 541 384 541C352 541 320 541 288 541C256 541 224 541 192 541C160 541 128 541 96 541C64 541 32 541 16 541L0 541Z" fill="#162439"></path><path d="M0 467L16 467.7C32 468.3 64 469.7 96 473.5C128 477.3 160 483.7 192 482.8C224 482 256 474 288 470.2C320 466.3 352 466.7 384 471.7C416 476.7 448 486.3 480 486.3C512 486.3 544 476.7 576 473.8C608 471 640 475 672 477.5C704 480 736 481 768 482.2C800 483.3 832 484.7 864 480.8C896 477 928 468 944 463.5L960 459L960 541L944 541C928 541 896 541 864 541C832 541 800 541 768 541C736 541 704 541 672 541C640 541 608 541 576 541C544 541 512 541 480 541C448 541 416 541 384 541C352 541 320 541 288 541C256 541 224 541 192 541C160 541 128 541 96 541C64 541 32 541 16 541L0 541Z" fill="#202a48"></path><path d="M0 500L16 499.3C32 498.7 64 497.3 96 499.3C128 501.3 160 506.7 192 505.8C224 505 256 498 288 497C320 496 352 501 384 505.2C416 509.3 448 512.7 480 509.8C512 507 544 498 576 494.5C608 491 640 493 672 495.5C704 498 736 501 768 500.2C800 499.3 832 494.7 864 495.3C896 496 928 502 944 505L960 508L960 541L944 541C928 541 896 541 864 541C832 541 800 541 768 541C736 541 704 541 672 541C640 541 608 541 576 541C544 541 512 541 480 541C448 541 416 541 384 541C352 541 320 541 288 541C256 541 224 541 192 541C160 541 128 541 96 541C64 541 32 541 16 541L0 541Z" fill="#2f2f56"></path></svg>